<?xml version="1.0" standalone="no"?>
<!DOCTYPE svg PUBLIC "-//W3C//DTD SVG 20010904//EN"
 "http://www.w3.org/TR/2001/REC-SVG-20010904/DTD/svg10.dtd">
<svg version="1.0" xmlns="http://www.w3.org/2000/svg"
 width="300.000000pt" height="300.000000pt" viewBox="0 0 300.000000 300.000000"
 preserveAspectRatio="xMidYMid meet">
<metadata>
Created by potrace 1.10, written by Peter Selinger 2001-2011
</metadata>
<g transform="translate(0.000000,300.000000) scale(0.100000,-0.100000)"
fill="#000000" stroke="none">
<path d="M788 2233 c-15 -10 -32 -29 -38 -43 -14 -34 -9 -785 5 -799 6 -6 64
-24 130 -41 149 -37 235 -79 298 -143 l48 -49 43 40 c75 69 213 129 395 172
47 12 96 27 108 36 l23 14 0 405 c0 389 -1 405 -19 415 -27 14 -63 13 -167 -5
-99 -17 -202 -61 -277 -118 -26 -21 -52 -37 -58 -37 -6 0 -33 16 -59 35 -64
47 -158 90 -252 115 -94 24 -144 25 -180 3z m170 -27 c85 -23 163 -58 228
-103 87 -60 100 -61 162 -19 28 20 54 36 57 36 4 0 13 6 21 14 23 24 164 65
245 72 72 6 78 5 88 -15 8 -15 11 -126 11 -375 -2 -394 -1 -390 -68 -401 -68
-12 -181 -46 -265 -79 -71 -29 -107 -50 -193 -111 -10 -7 -21 -3 -40 16 l-26
27 25 -5 c34 -7 93 47 108 98 9 28 15 36 24 29 14 -11 113 37 155 75 19 17 30
21 47 15 29 -12 121 14 147 40 20 20 21 31 21 295 0 266 -1 275 -21 296 -29
28 -116 29 -153 1 -23 -17 -26 -27 -29 -91 -3 -63 -12 -86 -26 -63 -8 14 -114
6 -139 -11 -28 -18 -36 -52 -30 -121 4 -47 3 -48 -19 -41 -13 4 -46 9 -73 12
-41 4 -55 1 -77 -16 l-26 -21 -1 -163 c-1 -89 3 -177 8 -194 l10 -33 -62 33
c-96 51 -169 71 -241 64 l-61 -6 3 356 c2 352 3 356 25 379 26 28 83 31 165
10z m710 -388 l-3 -282 -59 -17 c-33 -10 -62 -16 -65 -14 -3 1 -5 136 -3 299
l3 296 64 0 65 0 -2 -282z m-190 -110 l2 -216 -42 -24 c-24 -13 -55 -32 -70
-42 l-28 -18 0 261 0 262 68 -3 67 -3 3 -217z m-198 -140 l0 -203 -29 -42 -28
-42 -38 39 -38 39 -4 193 c-2 106 -1 198 1 205 4 9 27 13 71 13 l65 0 0 -202z
m-285 -148 c44 -17 76 -39 120 -83 33 -33 55 -58 50 -56 -6 2 -39 18 -75 36
-64 32 -225 83 -260 83 -22 0 -44 25 -35 41 12 18 130 5 200 -21z"/>
<path d="M1581 1052 c-55 -27 -76 -64 -76 -133 0 -55 3 -61 38 -96 35 -36 41
-38 101 -38 55 0 68 4 91 25 32 29 55 78 55 117 -1 70 -75 143 -145 143 -16 0
-45 -8 -64 -18z m118 -58 c26 -21 31 -33 31 -69 0 -56 -24 -85 -75 -92 -98
-13 -140 103 -61 169 30 25 70 22 105 -8z"/>
<path d="M1898 1049 c-40 -21 -78 -80 -78 -122 0 -36 25 -89 54 -116 38 -35
122 -41 169 -12 94 58 86 203 -13 253 -45 23 -86 22 -132 -3z m131 -58 c42
-40 43 -90 2 -132 -60 -60 -150 -22 -151 64 0 29 7 45 29 68 39 38 79 38 120
0z"/>
<path d="M2332 1059 c-18 -3 -34 -8 -36 -10 -25 -36 -80 -99 -86 -99 -3 0 -5
25 -2 55 4 54 4 55 -21 55 l-26 0 -3 -140 -3 -140 28 0 c26 0 27 2 27 54 0 30
4 57 9 60 5 4 29 -21 53 -54 39 -54 46 -59 81 -60 l38 0 -58 73 c-32 39 -62
74 -66 75 -4 2 18 33 49 68 31 36 55 66 53 68 -2 1 -19 -1 -37 -5z"/>
<path d="M2470 1063 c-34 -13 -60 -47 -60 -78 0 -40 23 -61 91 -83 42 -13 55
-22 57 -39 5 -32 -38 -52 -73 -33 -14 7 -25 20 -25 28 0 10 -7 13 -22 8 -13
-3 -26 -6 -30 -6 -16 0 -7 -23 21 -51 34 -33 92 -39 140 -14 32 16 41 33 41
74 0 36 -25 57 -91 79 -46 15 -54 21 -54 42 0 21 5 25 36 28 23 2 40 -2 49
-12 7 -9 21 -16 31 -16 56 0 5 69 -56 75 -22 3 -47 2 -55 -2z"/>
<path d="M465 1043 c-4 -10 -24 -65 -45 -123 -21 -58 -41 -113 -45 -122 -6
-15 -2 -18 23 -18 26 0 31 5 37 30 6 29 8 30 66 30 58 0 60 -1 70 -30 9 -24
17 -30 41 -30 25 0 29 3 23 18 -13 30 -86 226 -92 245 -4 11 -16 17 -38 17
-22 0 -35 -6 -40 -17z m58 -92 c9 -27 17 -51 17 -55 0 -3 -17 -6 -39 -6 l-38
0 16 55 c9 30 18 55 21 55 3 0 13 -22 23 -49z"/>
<path d="M675 920 l0 -140 28 0 c26 0 27 2 27 50 l0 50 40 0 c91 0 135 63 95
139 -18 37 -31 41 -118 41 l-72 0 0 -140z m133 84 c43 -30 22 -70 -42 -81
l-36 -6 0 52 c0 49 1 51 28 51 15 0 38 -7 50 -16z"/>
<path d="M908 1035 c4 -23 7 -24 44 -19 l39 7 -3 -122 -3 -121 28 0 27 0 0
121 0 122 40 -7 c38 -6 40 -5 40 19 l0 25 -109 0 -108 0 5 -25z"/>
<path d="M1250 919 l0 -141 84 3 c65 3 89 8 105 23 26 23 28 81 5 107 -15 16
-15 20 0 41 22 31 20 51 -9 82 -22 24 -30 26 -105 26 l-80 0 0 -141z m145 84
c11 -11 12 -19 5 -33 -11 -20 -71 -37 -89 -25 -11 6 -15 57 -5 67 11 12 75 5
89 -9z m3 -108 c15 -6 16 -37 0 -53 -7 -7 -31 -12 -55 -12 -42 0 -43 1 -43 33
0 19 2 36 5 39 6 5 71 1 93 -7z"/>
</g>
</svg>
